<svg width="50" height="50" viewBox="0 0 50 50" fill="none" xmlns="http://www.w3.org/2000/svg">
<path d="M25 12.3047C24.461 12.3047 24.0234 12.7422 24.0234 13.2812C24.0234 13.8203 24.461 14.2578 25 14.2578C25.539 14.2578 25.9766 13.8203 25.9766 13.2812C25.9766 12.7422 25.539 12.3047 25 12.3047Z" fill="#626262"/>
<path d="M8.78906 29.8828C9.32808 29.8828 9.76562 29.4453 9.76562 28.9062C9.76562 28.3672 9.32808 27.9297 8.78906 27.9297C8.25005 27.9297 7.8125 28.3672 7.8125 28.9062C7.8125 29.4453 8.25005 29.8828 8.78906 29.8828Z" fill="#626262"/>
<path d="M32.8125 0.539062C24.0208 0.539062 16.8049 6.60062 16.2468 14.2357C7.87392 14.6557 0 20.6933 0 28.8594C0 32.272 1.3504 35.5786 3.80859 38.1985C4.29497 40.2035 3.70445 42.3287 2.23923 43.7939C1.95999 44.0732 1.87645 44.4931 2.02751 44.8582C2.17857 45.2229 2.53448 45.4609 2.92969 45.4609C5.7148 45.4609 8.39882 44.3688 10.3931 42.4443C12.336 43.1065 14.8708 43.5078 17.1875 43.5078C25.9781 43.5078 33.1932 37.4478 33.7528 29.8142C35.7975 29.7234 37.9242 29.3457 39.6069 28.7724C41.6012 30.6969 44.2852 31.7891 47.0703 31.7891C47.4655 31.7891 47.8214 31.551 47.9725 31.1863C48.1236 30.8213 48.04 30.4013 47.7608 30.122C46.2955 28.6568 45.705 26.5316 46.1914 24.5266C48.6496 21.9067 50 18.6001 50 15.1875C50 6.70247 41.5195 0.539062 32.8125 0.539062ZM17.1875 41.5547C14.8827 41.5547 12.2562 41.1023 10.4969 40.4023C10.12 40.252 9.68933 40.3508 9.41505 40.6502C8.23593 41.9392 6.7028 42.838 5.03235 43.2511C5.95284 41.4875 6.18782 39.4085 5.62782 37.4386C5.58357 37.2834 5.50156 37.1415 5.38902 37.0259C3.17345 34.7439 1.95312 31.8436 1.95312 28.8594C1.95312 21.9777 8.92944 16.1641 17.1875 16.1641C24.9855 16.1641 31.8359 21.5867 31.8359 28.8594C31.8359 35.8597 25.2647 41.5547 17.1875 41.5547ZM44.611 23.354C44.4984 23.47 44.4164 23.6119 44.3722 23.7668C43.8122 25.7367 44.0472 27.8157 44.9677 29.5792C43.2972 29.1665 41.7641 28.2673 40.5849 26.9783C40.3107 26.6793 39.88 26.5801 39.5031 26.7304C37.9784 27.3369 35.8032 27.7569 33.7498 27.8584C33.4644 24.1654 31.6223 20.6944 28.4729 18.1172H41.2109C41.7503 18.1172 42.1875 17.68 42.1875 17.1406C42.1875 16.6012 41.7503 16.1641 41.2109 16.1641H25.4726C23.2559 15.0357 20.7668 14.3776 18.2049 14.2395C18.766 7.68056 25.1034 2.49219 32.8125 2.49219C41.0706 2.49219 48.0469 8.30579 48.0469 15.1875C48.0469 18.1717 46.8266 21.0721 44.611 23.354Z" fill="#626262"/>
<path d="M25 27.9297H12.6953C12.1559 27.9297 11.7188 28.3669 11.7188 28.9062C11.7188 29.4456 12.1559 29.8828 12.6953 29.8828H25C25.5394 29.8828 25.9766 29.4456 25.9766 28.9062C25.9766 28.3669 25.5394 27.9297 25 27.9297Z" fill="#626262"/>
<path d="M25 33.7891H8.78906C8.24966 33.7891 7.8125 34.2262 7.8125 34.7656C7.8125 35.305 8.24966 35.7422 8.78906 35.7422H25C25.5394 35.7422 25.9766 35.305 25.9766 34.7656C25.9766 34.2262 25.5394 33.7891 25 33.7891Z" fill="#626262"/>
<path d="M41.2109 12.3047H28.9062C28.3669 12.3047 27.9297 12.7419 27.9297 13.2812C27.9297 13.8206 28.3669 14.2578 28.9062 14.2578H41.2109C41.7503 14.2578 42.1875 13.8206 42.1875 13.2812C42.1875 12.7419 41.7503 12.3047 41.2109 12.3047Z" fill="#626262"/>
</svg>
