<svg width="50" height="50" viewBox="0 0 50 50" fill="none" xmlns="http://www.w3.org/2000/svg">
<g clip-path="url(#clip0)">
<path d="M8.17462 20.3985C8.65787 20.8503 9.68527 20.9486 10.258 20.2774L13.9246 16.0941C14.4573 15.4865 14.3959 14.5627 13.7876 14.0306C13.1795 13.4987 12.2546 13.5598 11.7221 14.1674L9.03553 17.2325L8.31544 16.5816C7.71587 16.0398 6.79035 16.086 6.24787 16.6849C5.70548 17.2838 5.75174 18.2084 6.35121 18.7503L8.17462 20.3985Z" fill="#626262"/>
<path d="M26.1864 17.7944H17.7402C16.9318 17.7944 16.2764 18.4491 16.2764 19.2568C16.2764 20.0644 16.9318 20.7191 17.7402 20.7191H26.1864C26.9948 20.7191 27.6502 20.0644 27.6502 19.2568C27.6502 18.4491 26.9948 17.7944 26.1864 17.7944Z" fill="#626262"/>
<path d="M26.1864 23.8601H7.21313C6.40472 23.8601 5.74933 24.5148 5.74933 25.3225C5.74933 26.1301 6.40472 26.7848 7.21313 26.7848H26.1864C26.9949 26.7848 27.6502 26.1301 27.6502 25.3225C27.6502 24.5148 26.9949 23.8601 26.1864 23.8601Z" fill="#626262"/>
<path d="M8.17462 37.1619C8.65787 37.6137 9.68527 37.7121 10.258 37.0409L13.9246 32.8575C14.4573 32.25 14.3959 31.3261 13.7876 30.7941C13.1795 30.2621 12.2546 30.3232 11.7221 30.9309L9.03553 33.996L8.31544 33.3452C7.71587 32.8034 6.79026 32.8496 6.24787 33.4484C5.70548 34.0473 5.75174 34.972 6.35121 35.5138L8.17462 37.1619Z" fill="#626262"/>
<path d="M26.1864 34.5525H17.7402C16.9318 34.5525 16.2764 35.2072 16.2764 36.0148C16.2764 36.8225 16.9318 37.4772 17.7402 37.4772H26.1864C26.9948 37.4772 27.6502 36.8225 27.6502 36.0148C27.6502 35.2072 26.9948 34.5525 26.1864 34.5525Z" fill="#626262"/>
<path d="M26.1864 40.5315H7.21313C6.40472 40.5315 5.74933 41.1862 5.74933 41.9938C5.74933 42.8015 6.40472 43.4562 7.21313 43.4562H26.1864C26.9949 43.4562 27.6502 42.8015 27.6502 41.9938C27.6502 41.1862 26.9949 40.5315 26.1864 40.5315Z" fill="#626262"/>
<path d="M46.4046 0H18.5321C18.2669 0.00126863 17.9498 0.0534776 17.6366 0.175266C17.3406 0.11847 17.0372 0.0889992 16.7294 0.0889992C15.4736 0.0889992 14.2885 0.572933 13.3926 1.4517C12.8517 1.98218 12.4526 2.6207 12.2162 3.31922H10.6517C9.54679 3.31922 8.64196 4.18111 8.56984 5.26696H3.40769C1.54222 5.26696 0.0245514 6.78307 0.0245514 8.64668V46.6204C0.0245514 48.484 1.54222 50.0001 3.40769 50.0001H30.0512C31.6118 50.0001 32.9283 48.9387 33.3172 47.5008H46.6505C48.4097 47.3941 50.0082 45.797 49.9752 43.9339V3.5669C49.9752 1.60013 48.3734 0 46.4046 0V0ZM11.4903 6.2438H13.4302C14.2271 6.2438 14.8777 5.60685 14.8937 4.81084C14.9136 3.81975 15.7371 3.01348 16.7294 3.01348C17.7216 3.01348 18.5452 3.81975 18.5652 4.81084C18.5812 5.60685 19.2317 6.2438 20.0287 6.2438H21.9685V7.85447H11.4903V6.2438ZM30.5067 46.6203C30.5067 46.8713 30.3023 47.0754 30.0512 47.0754H3.40769C3.1565 47.0754 2.95216 46.8713 2.95216 46.6203V8.64659C2.95216 8.39569 3.1565 8.19154 3.40769 8.19154H8.56272V8.50226C8.56272 9.75771 9.58514 10.7792 10.8419 10.7792H22.617C23.8737 10.7792 24.8961 9.75781 24.8961 8.50226V8.19154H30.0512C30.3023 8.19154 30.5067 8.39569 30.5067 8.64659V46.6203ZM47.0476 43.9338C47.0476 44.2599 46.8036 44.5338 46.48 44.5708C46.4659 44.5724 46.4519 44.5742 46.4379 44.5762H33.4343V8.64659C33.4343 6.78307 31.9166 5.26686 30.0512 5.26686H24.8881C24.807 4.17965 23.8976 3.31912 22.7888 3.31912H21.2426C21.1972 3.18504 21.1439 3.05388 21.0867 2.92458H46.4046C46.7591 2.92458 47.0476 3.21275 47.0476 3.5669V43.9338Z" fill="#626262"/>
</g>
<defs>
<clipPath id="clip0">
<rect width="50" height="50" fill="white"/>
</clipPath>
</defs>
</svg>
