<svg width="50" height="50" viewBox="0 0 50 50" fill="none" xmlns="http://www.w3.org/2000/svg">
<path d="M10.9375 9.375C4.90625 9.375 0 14.2812 0 20.3125C0 25.925 8.775 35.8656 9.775 36.9812C10.0719 37.3094 10.4937 37.5 10.9375 37.5C11.3813 37.5 11.8031 37.3094 12.1 36.9812C13.1 35.8656 21.875 25.925 21.875 20.3125C21.875 14.2812 16.9688 9.375 10.9375 9.375ZM10.9375 33.5531C7.525 29.5063 3.125 23.2937 3.125 20.3125C3.125 16.0062 6.63125 12.5 10.9375 12.5C15.2437 12.5 18.75 16.0062 18.75 20.3125C18.75 23.2906 14.35 29.5063 10.9375 33.5531Z" fill="#626262"/>
<path d="M10.9375 15.625C8.35312 15.625 6.25 17.7281 6.25 20.3125C6.25 22.8969 8.35312 25 10.9375 25C13.5219 25 15.625 22.8969 15.625 20.3125C15.625 17.7281 13.5219 15.625 10.9375 15.625ZM10.9375 21.875C10.075 21.875 9.375 21.175 9.375 20.3125C9.375 19.45 10.075 18.75 10.9375 18.75C11.8 18.75 12.5 19.45 12.5 20.3125C12.5 21.175 11.8 21.875 10.9375 21.875Z" fill="#626262"/>
<path d="M48.4375 0H35.9375C35.075 0 34.375 0.7 34.375 1.5625V10.9375V17.1875C34.375 18.05 35.075 18.75 35.9375 18.75C36.8 18.75 37.5 18.05 37.5 17.1875V12.5H48.4375C49.3 12.5 50 11.8 50 10.9375V1.5625C50 0.7 49.3 0 48.4375 0ZM46.875 9.375H37.5V3.125H46.875V9.375Z" fill="#626262"/>
<path d="M43.75 34.375H28.125C26.4031 34.375 25 32.9719 25 31.25C25 29.5281 26.4031 28.125 28.125 28.125H31.5375C32.1844 29.9406 33.9031 31.25 35.9375 31.25C38.5219 31.25 40.625 29.1469 40.625 26.5625C40.625 23.9781 38.5219 21.875 35.9375 21.875C33.9031 21.875 32.1844 23.1844 31.5375 25H28.125C24.6781 25 21.875 27.8031 21.875 31.25C21.875 34.6969 24.6781 37.5 28.125 37.5H43.75C45.4719 37.5 46.875 38.9031 46.875 40.625C46.875 42.3469 45.4719 43.75 43.75 43.75H15.3375C14.6906 41.9344 12.9719 40.625 10.9375 40.625C8.35312 40.625 6.25 42.7281 6.25 45.3125C6.25 47.8969 8.35312 50 10.9375 50C12.9719 50 14.6906 48.6906 15.3375 46.875H43.75C47.1969 46.875 50 44.0719 50 40.625C50 37.1781 47.1969 34.375 43.75 34.375ZM35.9375 25C36.8 25 37.5 25.7 37.5 26.5625C37.5 27.425 36.8 28.125 35.9375 28.125C35.075 28.125 34.375 27.425 34.375 26.5625C34.375 25.7 35.075 25 35.9375 25ZM10.9375 46.875C10.075 46.875 9.375 46.175 9.375 45.3125C9.375 44.45 10.075 43.75 10.9375 43.75C11.8 43.75 12.5 44.45 12.5 45.3125C12.5 46.175 11.8 46.875 10.9375 46.875Z" fill="#F9C500"/>
</svg>
