<svg width="100" height="77" viewBox="0 0 100 77" fill="none" xmlns="http://www.w3.org/2000/svg">
<g clip-path="url(#clip0)">
<path d="M91.1111 4.13977H8.88888C4.79789 4.13977 1.48148 7.84666 1.48148 12.4193V67.0645C1.48148 71.6372 4.79789 75.3441 8.88888 75.3441H91.1111C95.2021 75.3441 98.5185 71.6372 98.5185 67.0645V12.4193C98.5185 7.84666 95.2021 4.13977 91.1111 4.13977Z" stroke="black" stroke-width="4"/>
<path d="M21.3926 21.2619H25.037V30.5019C23.9704 31.4514 22.7259 32.18 21.3037 32.6877C19.8815 33.1955 18.4198 33.4495 16.9185 33.4495C14.805 33.4495 12.8987 32.9417 11.2 31.926C9.50125 30.8884 8.16792 29.4643 7.19999 27.6538C6.23209 25.8433 5.74814 23.801 5.74814 21.5269C5.74814 19.2527 6.23209 17.2105 7.19999 15.4C8.16792 13.5895 9.50125 12.1765 11.2 11.1609C12.9185 10.1232 14.8444 9.60431 16.9778 9.60431C18.7161 9.60431 20.2963 9.92448 21.7185 10.5647C23.1407 11.205 24.3358 12.1434 25.3037 13.3798L22.8741 16.0293C21.2938 14.263 19.3876 13.3798 17.1555 13.3798C15.6938 13.3798 14.3901 13.722 13.2444 14.4065C12.1185 15.0909 11.2296 16.0514 10.5778 17.2877C9.94569 18.5241 9.62962 19.9372 9.62962 21.5269C9.62962 23.0724 9.94569 24.4634 10.5778 25.6998C11.2296 26.9362 12.1185 27.9077 13.2444 28.6142C14.3901 29.3207 15.6839 29.674 17.1259 29.674C18.7457 29.674 20.1679 29.2766 21.3926 28.4817V21.2619ZM35.8062 15.2344C38.1371 15.2344 39.9149 15.8637 41.1395 17.1222C42.384 18.3585 43.0062 20.2353 43.0062 22.7523V33.1183H39.5099V30.9656C39.0556 31.7383 38.4038 32.3345 37.5544 32.754C36.7247 33.1514 35.7173 33.3501 34.5321 33.3501C33.347 33.3501 32.3099 33.1293 31.421 32.6877C30.5321 32.2241 29.8408 31.5948 29.347 30.8C28.8729 29.9831 28.6358 29.0668 28.6358 28.0512C28.6358 26.4615 29.1593 25.192 30.2062 24.2426C31.2729 23.2711 32.9421 22.7854 35.2136 22.7854H39.3025V22.5204C39.3025 21.284 38.9667 20.3346 38.2951 19.6723C37.6433 19.0099 36.6655 18.6787 35.3618 18.6787C34.4729 18.6787 33.5939 18.8333 32.7247 19.1424C31.8754 19.4515 31.1544 19.882 30.5618 20.434L29.1099 17.4202C29.9395 16.7137 30.9371 16.1727 32.1025 15.7974C33.268 15.4221 34.5025 15.2344 35.8062 15.2344ZM35.3025 30.3364C36.231 30.3364 37.0507 30.1045 37.7618 29.6409C38.4927 29.1551 39.0062 28.4707 39.3025 27.5875V25.5342H35.4803C33.347 25.5342 32.2803 26.318 32.2803 27.8856C32.2803 28.6363 32.547 29.2324 33.0803 29.674C33.6136 30.1155 34.3544 30.3364 35.3025 30.3364ZM51.2854 18.0164C52.3521 16.1617 54.2286 15.2344 56.915 15.2344V19.1755C56.599 19.1093 56.3126 19.0761 56.0558 19.0761C54.6138 19.0761 53.4878 19.5508 52.678 20.5002C51.8681 21.4275 51.4632 22.7744 51.4632 24.5407V33.1183H47.7595V15.4331H51.2854V18.0164ZM70.1467 32.1579C69.7122 32.5553 69.1789 32.8533 68.5467 33.052C67.9344 33.2508 67.2826 33.3501 66.5912 33.3501C64.853 33.3501 63.5097 32.8423 62.5615 31.8267C61.6134 30.811 61.1393 29.3318 61.1393 27.3888V18.8774H58.5319V15.5656H61.1393V11.5252H64.843V15.5656H69.0801V18.8774H64.843V27.2895C64.843 28.1505 65.0307 28.8129 65.406 29.2766C65.7813 29.7181 66.3245 29.9389 67.0356 29.9389C67.8652 29.9389 68.5567 29.6961 69.1097 29.2103L70.1467 32.1579Z" fill="black"/>
<path d="M7.22961 43.0538H16.2963C18.5087 43.0538 20.4741 43.5395 22.1926 44.511C23.9111 45.4604 25.2444 46.8182 26.1926 48.5845C27.1407 50.3288 27.6148 52.349 27.6148 54.6452C27.6148 56.9413 27.1407 58.9727 26.1926 60.7389C25.2444 62.4832 23.9111 63.841 22.1926 64.8125C20.4741 65.7619 18.5087 66.2366 16.2963 66.2366H7.22961V43.0538ZM16.1185 62.5936C17.6395 62.5936 18.9728 62.2734 20.1185 61.6331C21.2839 60.9708 22.1728 60.0435 22.7852 58.8512C23.4172 57.6368 23.7333 56.2348 23.7333 54.6452C23.7333 53.0555 23.4172 51.6645 22.7852 50.4723C22.1728 49.2579 21.2839 48.3306 20.1185 47.6903C18.9728 47.028 17.6395 46.6968 16.1185 46.6968H11.0815V62.5936H16.1185ZM46.2273 57.4933C46.2273 57.7804 46.2075 58.1888 46.1681 58.7187H33.7532C33.9705 60.0213 34.5335 61.0591 35.4421 61.8318C36.3705 62.5826 37.5162 62.9579 38.8792 62.9579C40.6174 62.9579 42.0495 62.3176 43.1755 61.037L45.1607 63.5871C44.4495 64.5365 43.5507 65.254 42.4644 65.7398C41.3779 66.2256 40.1532 66.4684 38.7903 66.4684C37.052 66.4684 35.5211 66.082 34.1977 65.3093C32.8742 64.5365 31.847 63.4656 31.1162 62.0968C30.4051 60.7058 30.0495 59.1382 30.0495 57.394C30.0495 55.6718 30.3952 54.1263 31.0866 52.7574C31.7977 51.3665 32.7755 50.2846 34.0199 49.5118C35.2644 48.7391 36.6668 48.3527 38.2273 48.3527C39.7681 48.3527 41.1409 48.7391 42.3458 49.5118C43.5705 50.2625 44.5187 51.3333 45.1903 52.7243C45.8816 54.0932 46.2273 55.6829 46.2273 57.4933ZM38.2273 51.6645C37.0421 51.6645 36.0347 52.0619 35.2051 52.8568C34.3952 53.6295 33.9014 54.6673 33.7236 55.9699H42.7014C42.5433 54.6893 42.0594 53.6516 41.2495 52.8568C40.4396 52.0619 39.4322 51.6645 38.2273 51.6645ZM57.0442 66.4684C55.4047 66.4684 53.9331 66.082 52.6294 65.3093C51.3257 64.5365 50.3084 63.4656 49.5775 62.0968C48.8467 60.7058 48.4812 59.1382 48.4812 57.394C48.4812 55.6497 48.8467 54.0932 49.5775 52.7243C50.3084 51.3555 51.3158 50.2846 52.5998 49.5118C53.9035 48.7391 55.3849 48.3527 57.0442 48.3527C58.6047 48.3527 59.9677 48.706 61.1331 49.4125C62.3183 50.119 63.2072 51.1346 63.7998 52.4594L60.9553 54.314C60.501 53.497 59.9281 52.8899 59.2368 52.4925C58.5652 52.073 57.8244 51.8632 57.0146 51.8632C55.6318 51.8632 54.4862 52.371 53.5775 53.3867C52.6689 54.3802 52.2146 55.716 52.2146 57.394C52.2146 59.072 52.659 60.4188 53.5479 61.4344C54.4566 62.428 55.6121 62.9247 57.0146 62.9247C57.8244 62.9247 58.5652 62.726 59.2368 62.3286C59.9281 61.9091 60.501 61.2909 60.9553 60.474L63.7998 62.3286C63.1874 63.6533 62.2887 64.68 61.1035 65.4086C59.9381 66.1151 58.5849 66.4684 57.0442 66.4684ZM73.881 66.4684C72.281 66.4684 70.839 66.082 69.5551 65.3093C68.2711 64.5365 67.2637 63.4656 66.5329 62.0968C65.8218 60.7058 65.4662 59.1382 65.4662 57.394C65.4662 55.6497 65.8218 54.0932 66.5329 52.7243C67.2637 51.3555 68.2711 50.2846 69.5551 49.5118C70.839 48.7391 72.281 48.3527 73.881 48.3527C75.5007 48.3527 76.9526 48.7391 78.2363 49.5118C79.5207 50.2846 80.5178 51.3555 81.2289 52.7243C81.96 54.0932 82.3252 55.6497 82.3252 57.394C82.3252 59.1382 81.96 60.7058 81.2289 62.0968C80.5178 63.4656 79.5207 64.5365 78.2363 65.3093C76.9526 66.082 75.5007 66.4684 73.881 66.4684ZM73.881 62.9247C75.2437 62.9247 76.3696 62.417 77.2585 61.4013C78.1474 60.3857 78.5918 59.0499 78.5918 57.394C78.5918 55.7381 78.1474 54.4023 77.2585 53.3867C76.3696 52.371 75.2437 51.8632 73.881 51.8632C72.5181 51.8632 71.3921 52.371 70.5032 53.3867C69.6341 54.4023 69.1995 55.7381 69.1995 57.394C69.1995 59.0499 69.6341 60.3857 70.5032 61.4013C71.3921 62.417 72.5181 62.9247 73.881 62.9247ZM89.3933 51.1346C90.46 49.28 92.3363 48.3527 95.023 48.3527V52.2938C94.7067 52.2275 94.42 52.1944 94.1637 52.1944C92.7215 52.1944 91.5955 52.6691 90.7859 53.6185C89.9755 54.5458 89.5711 55.8927 89.5711 57.6589V66.2366H85.8674V48.5514H89.3933V51.1346Z" fill="black"/>
</g>
<defs>
<clipPath id="clip0">
<rect width="100" height="77" fill="white"/>
</clipPath>
</defs>
</svg>
