<svg width="100" height="77" viewBox="0 0 100 77" fill="none" xmlns="http://www.w3.org/2000/svg">
<g clip-path="url(#clip0)">
<path d="M91.1111 4.13989H8.88888C4.79789 4.13989 1.48148 7.84678 1.48148 12.4195V67.0646C1.48148 71.6373 4.79789 75.3442 8.88888 75.3442H91.1111C95.2021 75.3442 98.5185 71.6373 98.5185 67.0646V12.4195C98.5185 7.84678 95.2021 4.13989 91.1111 4.13989Z" stroke="#CACACA" stroke-width="4"/>
<path d="M21.3926 21.2619H25.037V30.5019C23.9704 31.4513 22.7259 32.1799 21.3037 32.6877C19.8815 33.1955 18.4198 33.4494 16.9185 33.4494C14.805 33.4494 12.8987 32.9416 11.2 31.926C9.50125 30.8883 8.16792 29.4642 7.19999 27.6537C6.23209 25.8432 5.74814 23.801 5.74814 21.5268C5.74814 19.2527 6.23209 17.2104 7.19999 15.3999C8.16792 13.5895 9.50125 12.1765 11.2 11.1608C12.9185 10.1231 14.8444 9.60425 16.9778 9.60425C18.7161 9.60425 20.2963 9.92442 21.7185 10.5647C23.1407 11.2049 24.3358 12.1433 25.3037 13.3797L22.8741 16.0292C21.2938 14.2629 19.3876 13.3797 17.1555 13.3797C15.6938 13.3797 14.3901 13.7219 13.2444 14.4064C12.1185 15.0909 11.2296 16.0513 10.5778 17.2877C9.94569 18.5241 9.62962 19.9372 9.62962 21.5268C9.62962 23.0724 9.94569 24.4633 10.5778 25.6997C11.2296 26.9361 12.1185 27.9076 13.2444 28.6141C14.3901 29.3206 15.6839 29.6739 17.1259 29.6739C18.7457 29.6739 20.1679 29.2765 21.3926 28.4817V21.2619ZM35.8062 15.2344C38.1371 15.2344 39.9149 15.8636 41.1395 17.1221C42.384 18.3585 43.0062 20.2352 43.0062 22.7522V33.1182H39.5099V30.9655C39.0556 31.7383 38.4038 32.3344 37.5544 32.7539C36.7247 33.1513 35.7173 33.3501 34.5321 33.3501C33.347 33.3501 32.3099 33.1292 31.421 32.6877C30.5321 32.224 29.8408 31.5948 29.347 30.7999C28.8729 29.983 28.6358 29.0668 28.6358 28.0511C28.6358 26.4615 29.1593 25.1919 30.2062 24.2425C31.2729 23.2711 32.9421 22.7853 35.2136 22.7853H39.3025V22.5204C39.3025 21.284 38.9667 20.3346 38.2951 19.6722C37.6433 19.0098 36.6655 18.6787 35.3618 18.6787C34.4729 18.6787 33.5939 18.8332 32.7247 19.1423C31.8754 19.4514 31.1544 19.8819 30.5618 20.4339L29.1099 17.4202C29.9395 16.7137 30.9371 16.1727 32.1025 15.7974C33.268 15.4221 34.5025 15.2344 35.8062 15.2344ZM35.3025 30.3363C36.231 30.3363 37.0507 30.1045 37.7618 29.6408C38.4927 29.155 39.0062 28.4707 39.3025 27.5875V25.5341H35.4803C33.347 25.5341 32.2803 26.318 32.2803 27.8855C32.2803 28.6362 32.547 29.2324 33.0803 29.6739C33.6136 30.1155 34.3544 30.3363 35.3025 30.3363ZM51.2854 18.0163C52.3521 16.1617 54.2286 15.2344 56.915 15.2344V19.1754C56.599 19.1092 56.3126 19.0761 56.0558 19.0761C54.6138 19.0761 53.4878 19.5507 52.678 20.5002C51.8681 21.4275 51.4632 22.7743 51.4632 24.5406V33.1182H47.7595V15.4331H51.2854V18.0163ZM70.1467 32.1578C69.7122 32.5552 69.1789 32.8533 68.5467 33.052C67.9344 33.2507 67.2826 33.3501 66.5912 33.3501C64.853 33.3501 63.5097 32.8423 62.5615 31.8266C61.6134 30.811 61.1393 29.3317 61.1393 27.3888V18.8774H58.5319V15.5655H61.1393V11.5251H64.843V15.5655H69.0801V18.8774H64.843V27.2894C64.843 28.1505 65.0307 28.8129 65.406 29.2765C65.7813 29.7181 66.3245 29.9389 67.0356 29.9389C67.8652 29.9389 68.5567 29.696 69.1097 29.2103L70.1467 32.1578Z" fill="#CACACA"/>
<path d="M7.22963 43.0537H16.2963C18.5087 43.0537 20.4741 43.5395 22.1926 44.5109C23.9111 45.4603 25.2444 46.8182 26.1926 48.5845C27.1407 50.3287 27.6148 52.3489 27.6148 54.6451C27.6148 56.9413 27.1407 58.9726 26.1926 60.7389C25.2444 62.4831 23.9111 63.841 22.1926 64.8124C20.4741 65.7618 18.5087 66.2365 16.2963 66.2365H7.22963V43.0537ZM16.1185 62.5935C17.6395 62.5935 18.9728 62.2733 20.1185 61.6331C21.2839 60.9707 22.1728 60.0434 22.7852 58.8511C23.4173 57.6368 23.7333 56.2348 23.7333 54.6451C23.7333 53.0554 23.4173 51.6645 22.7852 50.4722C22.1728 49.2578 21.2839 48.3305 20.1185 47.6903C18.9728 47.0279 17.6395 46.6967 16.1185 46.6967H11.0815V62.5935H16.1185ZM46.2273 57.4933C46.2273 57.7803 46.2076 58.1888 46.1681 58.7187H33.7533C33.9705 60.0213 34.5335 61.059 35.4421 61.8318C36.3705 62.5825 37.5162 62.9578 38.8792 62.9578C40.6174 62.9578 42.0496 62.3175 43.1755 61.0369L45.1607 63.5871C44.4496 64.5365 43.5507 65.254 42.4644 65.7397C41.3779 66.2255 40.1533 66.4683 38.7903 66.4683C37.052 66.4683 35.5211 66.0819 34.1977 65.3092C32.8742 64.5365 31.847 63.4656 31.1162 62.0967C30.4051 60.7058 30.0496 59.1382 30.0496 57.3939C30.0496 55.6718 30.3952 54.1262 31.0866 52.7574C31.7977 51.3664 32.7755 50.2845 34.0199 49.5118C35.2644 48.739 36.6668 48.3526 38.2273 48.3526C39.7681 48.3526 41.1409 48.739 42.3459 49.5118C43.5705 50.2625 44.5187 51.3333 45.1903 52.7243C45.8816 54.0931 46.2273 55.6828 46.2273 57.4933ZM38.2273 51.6645C37.0422 51.6645 36.0347 52.0619 35.2051 52.8567C34.3952 53.6295 33.9014 54.6672 33.7236 55.9698H42.7014C42.5433 54.6892 42.0594 53.6516 41.2496 52.8567C40.4396 52.0619 39.4322 51.6645 38.2273 51.6645ZM57.0442 66.4683C55.4047 66.4683 53.9331 66.0819 52.6294 65.3092C51.3257 64.5365 50.3084 63.4656 49.5776 62.0967C48.8467 60.7058 48.4813 59.1382 48.4813 57.3939C48.4813 55.6497 48.8467 54.0931 49.5776 52.7243C50.3084 51.3554 51.3158 50.2845 52.5998 49.5118C53.9035 48.739 55.385 48.3526 57.0442 48.3526C58.6047 48.3526 59.9677 48.7059 61.1331 49.4124C62.3183 50.1189 63.2072 51.1346 63.7998 52.4593L60.9553 54.3139C60.501 53.497 59.9282 52.8898 59.2368 52.4924C58.5652 52.0729 57.8244 51.8632 57.0146 51.8632C55.6319 51.8632 54.4862 52.371 53.5776 53.3866C52.6689 54.3802 52.2146 55.7159 52.2146 57.3939C52.2146 59.0719 52.659 60.4187 53.5479 61.4344C54.4566 62.4279 55.6122 62.9247 57.0146 62.9247C57.8244 62.9247 58.5652 62.726 59.2368 62.3286C59.9282 61.909 60.501 61.2909 60.9553 60.4739L63.7998 62.3286C63.1874 63.6533 62.2887 64.68 61.1035 65.4086C59.9381 66.115 58.585 66.4683 57.0442 66.4683ZM73.881 66.4683C72.281 66.4683 70.839 66.0819 69.5551 65.3092C68.2711 64.5365 67.2637 63.4656 66.5329 62.0967C65.8218 60.7058 65.4662 59.1382 65.4662 57.3939C65.4662 55.6497 65.8218 54.0931 66.5329 52.7243C67.2637 51.3554 68.2711 50.2845 69.5551 49.5118C70.839 48.739 72.281 48.3526 73.881 48.3526C75.5007 48.3526 76.9526 48.739 78.2363 49.5118C79.5207 50.2845 80.5178 51.3554 81.2289 52.7243C81.96 54.0931 82.3252 55.6497 82.3252 57.3939C82.3252 59.1382 81.96 60.7058 81.2289 62.0967C80.5178 63.4656 79.5207 64.5365 78.2363 65.3092C76.9526 66.0819 75.5007 66.4683 73.881 66.4683ZM73.881 62.9247C75.2437 62.9247 76.3696 62.4169 77.2585 61.4012C78.1474 60.3856 78.5919 59.0498 78.5919 57.3939C78.5919 55.738 78.1474 54.4023 77.2585 53.3866C76.3696 52.371 75.2437 51.8632 73.881 51.8632C72.5181 51.8632 71.3922 52.371 70.5033 53.3866C69.6341 54.4023 69.1996 55.738 69.1996 57.3939C69.1996 59.0498 69.6341 60.3856 70.5033 61.4012C71.3922 62.4169 72.5181 62.9247 73.881 62.9247ZM89.3933 51.1346C90.46 49.2799 92.3363 48.3526 95.023 48.3526V52.2937C94.7067 52.2275 94.42 52.1944 94.1637 52.1944C92.7215 52.1944 91.5956 52.669 90.7859 53.6184C89.9756 54.5458 89.5711 55.8926 89.5711 57.6589V66.2365H85.8674V48.5513H89.3933V51.1346Z" fill="#CACACA"/>
</g>
<defs>
<clipPath id="clip0">
<rect width="100" height="77" fill="white"/>
</clipPath>
</defs>
</svg>
