<svg width="50" height="50" viewBox="0 0 50 50" fill="none" xmlns="http://www.w3.org/2000/svg">
<path d="M33.3939 32.0661C32.2092 32.0661 31.2455 31.2319 31.2455 30.2066C31.2455 29.1812 32.2092 28.3471 33.3939 28.3471C34.5786 28.3471 35.5423 29.1812 35.5423 30.2066C35.5423 30.7459 35.9797 31.1832 36.5189 31.1832C37.0582 31.1832 37.4955 30.7459 37.4955 30.2066C37.4955 28.4171 36.1621 26.9124 34.3705 26.504V25.9961C34.3705 25.4568 33.9332 25.0195 33.3939 25.0195C32.8547 25.0195 32.4174 25.4568 32.4174 25.9961V26.504C30.6258 26.9124 29.2924 28.4171 29.2924 30.2066C29.2924 32.3089 31.1323 34.0192 33.3939 34.0192C34.5786 34.0192 35.5423 34.8534 35.5423 35.8788C35.5423 36.9042 34.5786 37.7384 33.3939 37.7384C32.2092 37.7384 31.2455 36.9042 31.2455 35.8788C31.2455 35.3395 30.8082 34.9022 30.2689 34.9022C29.7297 34.9022 29.2924 35.3395 29.2924 35.8788C29.2924 37.6683 30.6258 39.173 32.4174 39.5814V40.0033C32.4174 40.5425 32.8547 40.9799 33.3939 40.9799C33.9332 40.9799 34.3705 40.5425 34.3705 40.0033V39.5814C36.1621 39.173 37.4955 37.6683 37.4955 35.8788C37.4955 33.7764 35.6555 32.0661 33.3939 32.0661Z" fill="#626262"/>
<path d="M44.09 26.2573C42.8143 24.2695 41.0171 22.6789 38.8925 21.6576C38.4063 21.4238 37.8228 21.6285 37.5892 22.1146C37.3555 22.6008 37.5601 23.1842 38.0463 23.4179C41.7485 25.1976 44.1406 29.0002 44.1406 33.1055C44.1406 34.8621 43.7076 36.6042 42.8885 38.1436C42.6352 38.6197 42.8158 39.2111 43.292 39.4644C43.438 39.5422 43.5951 39.5791 43.7498 39.5791C44.0992 39.5791 44.4372 39.391 44.6128 39.061C45.5816 37.2403 46.0937 35.1808 46.0937 33.1055C46.0937 30.668 45.4008 28.2999 44.09 26.2573Z" fill="#626262"/>
<path d="M34.929 20.4104L34.8632 20.4103C34.324 20.4103 33.8867 20.8475 33.8867 21.3868C33.8867 21.9262 34.324 22.3634 34.8632 22.3634L34.9198 22.3635C34.9213 22.3635 34.9228 22.3635 34.9245 22.3635C35.4617 22.3635 35.8984 21.9293 35.9009 21.3915C35.9034 20.8522 35.4682 20.4129 34.929 20.4104Z" fill="#626262"/>
<path d="M28.7507 42.7931C25.0485 41.0134 22.6565 37.2107 22.6565 33.1056C22.6565 31.3489 23.0895 29.6068 23.9085 28.0674C24.1618 27.5913 23.9813 26.9999 23.5051 26.7466C23.0291 26.4933 22.4375 26.6738 22.1843 27.15C21.2154 28.9708 20.7033 31.0302 20.7033 33.1056C20.7033 35.5431 21.3962 37.911 22.707 39.9537C23.9827 41.9415 25.78 43.5321 27.9045 44.5535C28.0409 44.6191 28.1851 44.6501 28.3269 44.6501C28.6906 44.6501 29.0396 44.4461 29.2078 44.0965C29.4413 43.6103 29.2368 43.0268 28.7507 42.7931Z" fill="#626262"/>
<path d="M31.9337 43.8476L31.8771 43.8474C31.3353 43.8464 30.8986 44.2799 30.8962 44.8194C30.8936 45.3588 31.329 45.798 31.8682 45.8006L31.9337 45.8008C32.4729 45.8008 32.9102 45.3634 32.9102 44.8242C32.9102 44.2849 32.4729 43.8476 31.9337 43.8476Z" fill="#626262"/>
<path d="M37.8328 17.1062C37.714 16.823 37.5684 16.5561 37.399 16.3086H39.9413C42.4183 16.3086 44.4335 14.2933 44.4335 11.8164C44.4335 9.33944 42.4183 7.32421 39.9413 7.32421H32.121C32.6182 6.60136 32.9101 5.72685 32.9101 4.78515C32.9101 2.3082 30.8949 0.292969 28.4179 0.292969H4.49218C2.01523 0.292969 0 2.3082 0 4.78515C0 7.2621 2.01523 9.27733 4.49218 9.27733H12.3125C11.8153 10.0002 11.5234 10.8747 11.5234 11.8164C11.5234 12.7581 11.8152 13.6326 12.3125 14.3554H9.76561C7.28866 14.3554 5.27343 16.3707 5.27343 18.8476C5.27343 20.2702 5.93886 21.5396 6.97411 22.3632C5.93886 23.1869 5.27343 24.4563 5.27343 25.8789C5.27343 27.3014 5.93886 28.5708 6.97411 29.3945C5.93886 30.2181 5.27343 31.4875 5.27343 32.9101C5.27343 34.3327 5.93886 35.6021 6.97411 36.4257C5.93886 37.2493 5.27343 38.5188 5.27343 39.9413C5.27343 42.4183 7.28866 44.4335 9.76561 44.4335H21.2744C24.3062 47.6764 28.6193 49.707 33.3985 49.707C42.5526 49.707 50 42.2596 50 33.1055C50 25.4867 44.8408 19.051 37.8328 17.1062ZM39.9413 9.27733C41.3414 9.27733 42.4804 10.4164 42.4804 11.8164C42.4804 13.2164 41.3414 14.3554 39.9413 14.3554H33.6913H16.0156C14.6155 14.3554 13.4765 13.2164 13.4765 11.8164C13.4765 10.4164 14.6155 9.27733 16.0156 9.27733H39.9413ZM4.49218 7.32421C3.09208 7.32421 1.95312 6.18515 1.95312 4.78515C1.95312 3.38515 3.09208 2.24609 4.49218 2.24609H28.4179C29.818 2.24609 30.957 3.38515 30.957 4.78515C30.957 6.18515 29.818 7.32421 28.4179 7.32421H4.49218ZM9.76561 16.3086H33.6913C34.0847 16.3086 34.4614 16.4 34.7993 16.5636C34.3373 16.5249 33.8703 16.504 33.3985 16.504C28.814 16.504 24.6578 18.372 21.6505 21.3867H9.76561C8.36561 21.3867 7.22655 20.2476 7.22655 18.8476C7.22655 17.4476 8.36561 16.3086 9.76561 16.3086ZM9.76561 23.3398H19.9819C18.8733 24.8586 18.0162 26.5717 17.4718 28.4179H9.76561C8.36551 28.4179 7.22655 27.279 7.22655 25.8789C7.22655 24.4789 8.36551 23.3398 9.76561 23.3398ZM9.76561 30.371H17.0234C16.8753 31.261 16.7969 32.1742 16.7969 33.1055C16.7969 33.901 16.8545 34.6832 16.9632 35.4492H9.76561C8.36551 35.4492 7.22655 34.3102 7.22655 32.9101C7.22655 31.51 8.36551 30.371 9.76561 30.371ZM9.76561 42.4804C8.36551 42.4804 7.22655 41.3414 7.22655 39.9413C7.22655 38.5412 8.36551 37.4023 9.76561 37.4023H17.3619C17.8547 39.2395 18.6551 40.9517 19.7049 42.4804H9.76561ZM33.3985 47.7539C25.3213 47.7539 18.7501 41.1826 18.7501 33.1055C18.7501 25.0284 25.3213 18.4571 33.3985 18.4571C41.4756 18.4571 48.0469 25.0284 48.0469 33.1055C48.0469 41.1826 41.4756 47.7539 33.3985 47.7539Z" fill="#626262"/>
</svg>
