<svg width="50" height="50" viewBox="0 0 50 50" fill="none" xmlns="http://www.w3.org/2000/svg">
<path d="M14.8265 28.9078C17.1396 28.8783 19.4376 28.3003 21.472 27.2364C21.4775 27.2335 21.4886 27.2296 21.5 27.2349C22.5439 27.7219 24.5563 28.5049 26.3069 28.2764C26.7404 28.2198 27.11 27.9352 27.2714 27.5336C27.4324 27.1331 27.3615 26.6771 27.0862 26.3434C26.6941 25.8677 26.1197 25.0813 25.6105 24.0364C25.6071 24.0294 25.61 24.0148 25.6208 24.0026C27.9552 21.3841 29.2506 18.0196 29.2684 14.5286C29.2854 11.1939 28.1202 7.93194 25.9873 5.34373C25.7288 5.02999 25.2616 4.98261 24.9439 5.23795C24.6262 5.49338 24.5783 5.95481 24.8368 6.26856C26.7532 8.5942 27.8003 11.5251 27.785 14.5212C27.769 17.6581 26.605 20.6814 24.5074 23.0342C24.1023 23.4887 24.0106 24.1313 24.2738 24.6717C24.7167 25.5805 25.2048 26.3169 25.6081 26.8524C24.2815 26.8403 22.7723 26.2081 22.1337 25.9102C21.705 25.71 21.198 25.7217 20.7778 25.9414C18.9244 26.9107 16.9157 27.4158 14.8072 27.4427C11.3436 27.4877 8.03488 26.165 5.49387 23.7207C2.95256 21.2762 1.52867 18.0457 1.48437 14.6246C1.43897 11.1214 2.78533 7.82 5.27531 5.32898C7.76609 2.83738 11.0898 1.46519 14.6342 1.46519C17.4768 1.46519 20.1843 2.35045 22.4643 4.02516C22.7928 4.26662 23.2576 4.19923 23.5021 3.87454C23.7465 3.54986 23.6782 3.09096 23.3496 2.8495C20.8117 0.98529 17.7981 0 14.6342 0C10.6899 0 6.99134 1.52702 4.2199 4.29964C1.44896 7.07177 -0.0492975 10.7452 0.00123788 14.6434C0.0505865 18.4561 1.6338 22.0526 4.45913 24.7704C7.23818 27.4436 10.8464 28.909 14.639 28.9089C14.7012 28.9089 14.7641 28.9085 14.8265 28.9078Z" fill="#626262"/>
<path d="M19.2047 14.4478C19.2047 15.8755 20.3807 17.037 21.8261 17.037C23.2716 17.037 24.4475 15.8755 24.4475 14.4478C24.4475 13.0201 23.2716 11.8586 21.8261 11.8586C20.3807 11.8586 19.2047 13.0201 19.2047 14.4478ZM22.964 14.4478C22.964 15.0676 22.4535 15.5718 21.826 15.5718C21.1986 15.5718 20.6881 15.0676 20.6881 14.4478C20.6881 13.828 21.1986 13.3238 21.826 13.3238C22.4535 13.3238 22.964 13.828 22.964 14.4478Z" fill="#626262"/>
<path d="M12.013 14.4478C12.013 15.8755 13.189 17.037 14.6344 17.037C16.0799 17.037 17.2558 15.8755 17.2558 14.4478C17.2558 13.0201 16.0799 11.8586 14.6344 11.8586C13.189 11.8586 12.013 13.0201 12.013 14.4478ZM15.7724 14.4478C15.7724 15.0676 15.2619 15.5718 14.6344 15.5718C14.0069 15.5718 13.4964 15.0676 13.4964 14.4478C13.4964 13.828 14.0069 13.3238 14.6344 13.3238C15.2619 13.3238 15.7724 13.828 15.7724 14.4478Z" fill="#626262"/>
<path d="M4.82141 14.4478C4.82141 15.8755 5.99737 17.037 7.44282 17.037C8.88826 17.037 10.0642 15.8755 10.0642 14.4478C10.0642 13.0201 8.88826 11.8586 7.44282 11.8586C5.99737 11.8586 4.82141 13.0201 4.82141 14.4478ZM8.5808 14.4478C8.5808 15.0676 8.0703 15.5718 7.44282 15.5718C6.81533 15.5718 6.30483 15.0676 6.30483 14.4478C6.30483 13.828 6.81533 13.3238 7.44282 13.3238C8.0703 13.3238 8.5808 13.828 8.5808 14.4478Z" fill="#626262"/>
<path d="M49.3361 16.4108C48.9296 16.3685 48.5636 16.6599 48.5204 17.0622C48.3534 18.6217 47.9924 20.3213 47.4476 22.1135C45.3146 29.1303 41.9939 35.0342 37.5777 39.6615C36.3442 40.954 34.9763 42.1935 33.5732 43.2938C33.0836 43.6777 32.5846 44.0499 32.077 44.4101C31.0293 45.1537 29.9448 45.8468 28.8299 46.4879C25.965 48.1355 22.7485 48.85 20.2252 48.3989C19.8138 48.3253 19.4177 48.234 19.0351 48.1262C20.6901 46.9047 22.1493 45.6626 23.7505 44.2356C25.5738 42.6095 27.17 41.1029 28.6302 39.6298C28.6321 39.6278 28.6338 39.6255 28.6358 39.6235C28.638 39.6213 28.6403 39.6193 28.6425 39.6171L29.504 38.7051C34.89 33.603 38.9008 27.4762 41.4269 20.4899C41.4269 20.4899 41.8921 19.1788 41.8931 19.1759C43.2387 15.331 44.4749 11.2513 45.5741 7.03254C46.4887 7.97201 47.2232 9.087 47.7634 10.3614C48.1113 11.1822 48.3574 12.0931 48.495 13.069C48.5515 13.4698 48.926 13.7494 49.332 13.6936C49.7377 13.6377 50.0208 13.2677 49.9643 12.8669C49.809 11.7662 49.529 10.7329 49.1318 9.79575C49.0336 9.56387 48.9288 9.33481 48.8173 9.10878C47.821 7.0889 46.3308 5.59111 44.5247 4.2746C42.741 2.97451 40.3798 1.97575 38.2003 2.91951C37.4889 3.22769 36.8814 3.7194 36.3971 4.37794C36.0958 4.78311 35.8451 5.25275 35.653 5.7721C35.6095 5.88883 34.1481 10.4582 33.5992 12.713C33.1715 14.472 33.525 15.7568 34.711 16.7565C35.0539 17.0456 35.4624 17.3074 35.96 17.5566C37.0094 18.0824 38.105 18.5274 39.1996 18.963L39.6498 19.1424C39.6547 19.1443 40.2531 19.3683 40.2531 19.3683L40.0285 20.0012C37.5797 26.7736 33.6884 32.7154 28.4627 37.6614C28.4527 37.6709 28.4431 37.6806 28.4336 37.6905L28.0689 38.0766C28.0689 38.0766 27.2938 37.3228 27.2937 37.3229C27.2298 37.2552 25.6779 35.6087 24.8437 34.9608C22.86 33.4205 21.1815 33.3843 19.2311 34.8403C17.5383 36.104 15.3475 37.8002 13.4158 39.7177C11.2241 41.893 11.2535 44.1768 13.5032 46.5054C14.2844 47.3141 15.1701 47.987 16.152 48.5245C16.151 48.5254 16.1501 48.5265 16.1492 48.5273C16.4782 48.7079 16.8177 48.8727 17.167 49.0213C17.1814 49.0274 17.1961 49.0321 17.2106 49.0373C18.0654 49.3974 18.9831 49.6659 19.9611 49.8406C20.559 49.9475 21.1825 50 21.8236 50C24.295 50 27.0292 49.2188 29.5765 47.754C30.7414 47.0841 31.8741 46.3595 32.9683 45.5818C33.5193 45.1901 34.0606 44.7849 34.591 44.3663C38.172 41.5405 41.2676 38.0009 43.6846 34.1437C44.1895 33.3378 44.6664 32.5147 45.1149 31.6769C46.6741 28.7645 47.9098 25.6886 48.8685 22.5347C49.4399 20.6555 49.8191 18.866 49.9958 17.2162C50.0388 16.814 49.7436 16.4534 49.3361 16.4108ZM40.1987 17.778C39.2343 17.4063 38.2969 17.0282 37.3616 16.5986C36.7759 16.3296 36.1687 16.059 35.674 15.642C34.9305 15.0154 34.7472 14.2659 35.0415 13.0555C35.5603 10.9247 36.9659 6.51377 37.048 6.27046C37.1923 5.88219 37.3755 5.53728 37.595 5.2422C37.9248 4.79366 38.3289 4.46371 38.7961 4.26132C40.7081 3.4334 42.8411 4.79786 44.3076 5.9068C44.315 5.91247 44.3225 5.91803 44.33 5.9237C43.2602 10.1077 42.054 14.1582 40.7388 17.9831C40.5619 17.9169 40.3784 17.8473 40.1987 17.778ZM16.8222 47.2178C16.822 47.2196 16.8216 47.2214 16.8214 47.2232C15.9938 46.7635 15.2482 46.1895 14.5763 45.494C12.877 43.7351 12.8454 42.3609 14.4672 40.7512C16.3227 38.9095 18.3686 37.3206 20.1253 36.0093C21.5236 34.9655 22.4827 34.9916 23.9266 36.1129C24.6704 36.6904 27.0412 39.1339 27.0412 39.1339C25.7467 40.418 24.3388 41.7369 22.7565 43.1479C20.9426 44.7645 19.3183 46.1365 17.3792 47.5073C17.1894 47.4172 17.0046 47.3194 16.8222 47.2178Z" fill="#626262"/>
</svg>
