<svg width="50" height="50" viewBox="0 0 50 50" fill="none" xmlns="http://www.w3.org/2000/svg">
<path d="M25 50C38.7851 50 50 38.7851 50 25C50 11.2149 38.7851 0 25 0C11.2149 0 0 11.2149 0 25C0 38.7851 11.2149 50 25 50ZM25 2.2293C37.556 2.2293 47.7707 12.444 47.7707 25C47.7707 37.556 37.556 47.7707 25 47.7707C12.444 47.7707 2.2293 37.556 2.2293 25C2.2293 12.444 12.444 2.2293 25 2.2293Z" fill="#626262"/>
<path d="M18.8377 22.7533C21.3873 22.7533 23.4537 20.6864 23.4537 18.1373C23.4543 15.5877 21.3873 13.5208 18.8377 13.5208C16.2881 13.5208 14.2217 15.5877 14.2217 18.1367C14.2242 20.6851 16.2893 22.7502 18.8377 22.7533ZM18.8377 15.7501C20.1558 15.7501 21.2244 16.8187 21.2244 18.1367C21.225 19.4554 20.1564 20.524 18.8377 20.524C17.5197 20.524 16.451 19.4554 16.451 18.1367C16.4523 16.8193 17.5203 15.7519 18.8377 15.7501Z" fill="#626262"/>
<path d="M26.2664 32.1432C26.2664 34.6928 28.3334 36.7592 30.8824 36.7592C33.432 36.7592 35.499 34.6928 35.499 32.1432C35.499 29.5936 33.432 27.5266 30.8824 27.5266C28.334 27.5297 26.2695 29.5948 26.2664 32.1432ZM33.2697 32.1432C33.2697 33.4612 32.201 34.5299 30.8824 34.5299C29.5643 34.5299 28.4957 33.4612 28.4957 32.1432C28.4957 30.8252 29.5643 29.7565 30.8824 29.7559C32.2004 29.7578 33.2678 30.8252 33.2697 32.1432Z" fill="#626262"/>
<path d="M16.5125 38.0137C17.0282 38.3503 17.7192 38.2047 18.0551 37.6891L33.812 13.5288C34.0303 13.1948 34.054 12.7699 33.8742 12.4141C33.6938 12.0583 33.3374 11.8257 32.9393 11.8046C32.5412 11.7834 32.1618 11.9762 31.9447 12.3109L16.1878 36.4712C15.8513 36.9874 15.9969 37.6779 16.5125 38.0137Z" fill="#626262"/>
</svg>
